G04 #@! TF.FileFunction,Copper,L2,Bot,Signal*
%FSLAX46Y46*%
G04 Gerber Fmt 4.6, Leading zero omitted, Abs format (unit mm)*
G04 Created by KiCad (PCBNEW 4.0.2-stable) date 2016 May 29, Sunday 21:59:10*
%MOMM*%
G01*
G04 APERTURE LIST*
%ADD10C,0.100000*%
%ADD11R,4.000000X4.000000*%
%ADD12R,5.500000X5.500000*%
%ADD13C,0.685800*%
%ADD14C,0.254000*%
G04 APERTURE END LIST*
D10*
D11*
X105410000Y-91440000D03*
D12*
X92610000Y-91440000D03*
X118210000Y-91440000D03*
D13*
X105410000Y-96520000D03*
X108204000Y-88900000D03*
X100965000Y-94615000D03*
D14*
X105410000Y-91440000D02*
X105410000Y-96520000D01*
G36*
X121718000Y-104700000D02*
X88848000Y-104700000D01*
X88848000Y-91725750D01*
X89225000Y-91725750D01*
X89225000Y-94316310D01*
X89321673Y-94549699D01*
X89500302Y-94728327D01*
X89733691Y-94825000D01*
X92324250Y-94825000D01*
X92483000Y-94666250D01*
X92483000Y-91567000D01*
X92737000Y-91567000D01*
X92737000Y-94666250D01*
X92895750Y-94825000D01*
X95486309Y-94825000D01*
X95719698Y-94728327D01*
X95898327Y-94549699D01*
X95995000Y-94316310D01*
X95995000Y-91725750D01*
X95836250Y-91567000D01*
X92737000Y-91567000D01*
X92483000Y-91567000D01*
X89383750Y-91567000D01*
X89225000Y-91725750D01*
X88848000Y-91725750D01*
X88848000Y-88563690D01*
X89225000Y-88563690D01*
X89225000Y-91154250D01*
X89383750Y-91313000D01*
X92483000Y-91313000D01*
X92483000Y-88213750D01*
X92737000Y-88213750D01*
X92737000Y-91313000D01*
X95836250Y-91313000D01*
X95995000Y-91154250D01*
X95995000Y-89440000D01*
X102762560Y-89440000D01*
X102762560Y-93440000D01*
X102806838Y-93675317D01*
X102945910Y-93891441D01*
X103158110Y-94036431D01*
X103410000Y-94087440D01*
X104648000Y-94087440D01*
X104648000Y-95898917D01*
X104581460Y-95965341D01*
X104432270Y-96324630D01*
X104431931Y-96713663D01*
X104580493Y-97073212D01*
X104855341Y-97348540D01*
X105214630Y-97497730D01*
X105603663Y-97498069D01*
X105963212Y-97349507D01*
X106238540Y-97074659D01*
X106387730Y-96715370D01*
X106388069Y-96326337D01*
X106239507Y-95966788D01*
X106172000Y-95899163D01*
X106172000Y-94087440D01*
X107410000Y-94087440D01*
X107645317Y-94043162D01*
X107861441Y-93904090D01*
X108006431Y-93691890D01*
X108057440Y-93440000D01*
X108057440Y-91725750D01*
X114825000Y-91725750D01*
X114825000Y-94316310D01*
X114921673Y-94549699D01*
X115100302Y-94728327D01*
X115333691Y-94825000D01*
X117924250Y-94825000D01*
X118083000Y-94666250D01*
X118083000Y-91567000D01*
X118337000Y-91567000D01*
X118337000Y-94666250D01*
X118495750Y-94825000D01*
X121086309Y-94825000D01*
X121319698Y-94728327D01*
X121498327Y-94549699D01*
X121595000Y-94316310D01*
X121595000Y-91725750D01*
X121436250Y-91567000D01*
X118337000Y-91567000D01*
X118083000Y-91567000D01*
X114983750Y-91567000D01*
X114825000Y-91725750D01*
X108057440Y-91725750D01*
X108057440Y-89440000D01*
X108013162Y-89204683D01*
X107874090Y-88988559D01*
X107661890Y-88843569D01*
X107410000Y-88792560D01*
X103410000Y-88792560D01*
X103174683Y-88836838D01*
X102958559Y-88975910D01*
X102813569Y-89188110D01*
X102762560Y-89440000D01*
X95995000Y-89440000D01*
X95995000Y-88563690D01*
X114825000Y-88563690D01*
X114825000Y-91154250D01*
X114983750Y-91313000D01*
X118083000Y-91313000D01*
X118083000Y-88213750D01*
X118337000Y-88213750D01*
X118337000Y-91313000D01*
X121436250Y-91313000D01*
X121595000Y-91154250D01*
X121595000Y-88563690D01*
X121498327Y-88330301D01*
X121319698Y-88151673D01*
X121086309Y-88055000D01*
X118495750Y-88055000D01*
X118337000Y-88213750D01*
X118083000Y-88213750D01*
X117924250Y-88055000D01*
X115333691Y-88055000D01*
X115100302Y-88151673D01*
X114921673Y-88330301D01*
X114825000Y-88563690D01*
X95995000Y-88563690D01*
X95898327Y-88330301D01*
X95719698Y-88151673D01*
X95486309Y-88055000D01*
X92895750Y-88055000D01*
X92737000Y-88213750D01*
X92483000Y-88213750D01*
X92324250Y-88055000D01*
X89733691Y-88055000D01*
X89500302Y-88151673D01*
X89321673Y-88330301D01*
X89225000Y-88563690D01*
X88848000Y-88563690D01*
X88848000Y-80720000D01*
X121718000Y-80720000D01*
X121718000Y-104700000D01*
X121718000Y-104700000D01*
G37*
X121718000Y-104700000D02*
X88848000Y-104700000D01*
X88848000Y-91725750D01*
X89225000Y-91725750D01*
X89225000Y-94316310D01*
X89321673Y-94549699D01*
X89500302Y-94728327D01*
X89733691Y-94825000D01*
X92324250Y-94825000D01*
X92483000Y-94666250D01*
X92483000Y-91567000D01*
X92737000Y-91567000D01*
X92737000Y-94666250D01*
X92895750Y-94825000D01*
X95486309Y-94825000D01*
X95719698Y-94728327D01*
X95898327Y-94549699D01*
X95995000Y-94316310D01*
X95995000Y-91725750D01*
X95836250Y-91567000D01*
X92737000Y-91567000D01*
X92483000Y-91567000D01*
X89383750Y-91567000D01*
X89225000Y-91725750D01*
X88848000Y-91725750D01*
X88848000Y-88563690D01*
X89225000Y-88563690D01*
X89225000Y-91154250D01*
X89383750Y-91313000D01*
X92483000Y-91313000D01*
X92483000Y-88213750D01*
X92737000Y-88213750D01*
X92737000Y-91313000D01*
X95836250Y-91313000D01*
X95995000Y-91154250D01*
X95995000Y-89440000D01*
X102762560Y-89440000D01*
X102762560Y-93440000D01*
X102806838Y-93675317D01*
X102945910Y-93891441D01*
X103158110Y-94036431D01*
X103410000Y-94087440D01*
X104648000Y-94087440D01*
X104648000Y-95898917D01*
X104581460Y-95965341D01*
X104432270Y-96324630D01*
X104431931Y-96713663D01*
X104580493Y-97073212D01*
X104855341Y-97348540D01*
X105214630Y-97497730D01*
X105603663Y-97498069D01*
X105963212Y-97349507D01*
X106238540Y-97074659D01*
X106387730Y-96715370D01*
X106388069Y-96326337D01*
X106239507Y-95966788D01*
X106172000Y-95899163D01*
X106172000Y-94087440D01*
X107410000Y-94087440D01*
X107645317Y-94043162D01*
X107861441Y-93904090D01*
X108006431Y-93691890D01*
X108057440Y-93440000D01*
X108057440Y-91725750D01*
X114825000Y-91725750D01*
X114825000Y-94316310D01*
X114921673Y-94549699D01*
X115100302Y-94728327D01*
X115333691Y-94825000D01*
X117924250Y-94825000D01*
X118083000Y-94666250D01*
X118083000Y-91567000D01*
X118337000Y-91567000D01*
X118337000Y-94666250D01*
X118495750Y-94825000D01*
X121086309Y-94825000D01*
X121319698Y-94728327D01*
X121498327Y-94549699D01*
X121595000Y-94316310D01*
X121595000Y-91725750D01*
X121436250Y-91567000D01*
X118337000Y-91567000D01*
X118083000Y-91567000D01*
X114983750Y-91567000D01*
X114825000Y-91725750D01*
X108057440Y-91725750D01*
X108057440Y-89440000D01*
X108013162Y-89204683D01*
X107874090Y-88988559D01*
X107661890Y-88843569D01*
X107410000Y-88792560D01*
X103410000Y-88792560D01*
X103174683Y-88836838D01*
X102958559Y-88975910D01*
X102813569Y-89188110D01*
X102762560Y-89440000D01*
X95995000Y-89440000D01*
X95995000Y-88563690D01*
X114825000Y-88563690D01*
X114825000Y-91154250D01*
X114983750Y-91313000D01*
X118083000Y-91313000D01*
X118083000Y-88213750D01*
X118337000Y-88213750D01*
X118337000Y-91313000D01*
X121436250Y-91313000D01*
X121595000Y-91154250D01*
X121595000Y-88563690D01*
X121498327Y-88330301D01*
X121319698Y-88151673D01*
X121086309Y-88055000D01*
X118495750Y-88055000D01*
X118337000Y-88213750D01*
X118083000Y-88213750D01*
X117924250Y-88055000D01*
X115333691Y-88055000D01*
X115100302Y-88151673D01*
X114921673Y-88330301D01*
X114825000Y-88563690D01*
X95995000Y-88563690D01*
X95898327Y-88330301D01*
X95719698Y-88151673D01*
X95486309Y-88055000D01*
X92895750Y-88055000D01*
X92737000Y-88213750D01*
X92483000Y-88213750D01*
X92324250Y-88055000D01*
X89733691Y-88055000D01*
X89500302Y-88151673D01*
X89321673Y-88330301D01*
X89225000Y-88563690D01*
X88848000Y-88563690D01*
X88848000Y-80720000D01*
X121718000Y-80720000D01*
X121718000Y-104700000D01*
M02*
