G04 #@! TF.FileFunction,Copper,L2,Bot,Signal*
%FSLAX46Y46*%
G04 Gerber Fmt 4.6, Leading zero omitted, Abs format (unit mm)*
G04 Created by KiCad (PCBNEW 4.0.2-stable) date 2016 May 30, Monday 20:39:18*
%MOMM*%
G01*
G04 APERTURE LIST*
%ADD10C,0.100000*%
%ADD11R,4.000000X4.000000*%
%ADD12R,5.500000X5.500000*%
%ADD13C,0.600000*%
%ADD14C,0.250000*%
%ADD15C,0.254000*%
G04 APERTURE END LIST*
D10*
D11*
X147066000Y-106426000D03*
D12*
X134266000Y-106426000D03*
X159866000Y-106426000D03*
D13*
X147066000Y-109220000D03*
X142748000Y-105156000D03*
X149860000Y-99568000D03*
D14*
X147066000Y-106426000D02*
X147066000Y-109220000D01*
D15*
G36*
X162891000Y-103102590D02*
X162742309Y-103041000D01*
X160151750Y-103041000D01*
X159993000Y-103199750D01*
X159993000Y-106299000D01*
X160013000Y-106299000D01*
X160013000Y-106553000D01*
X159993000Y-106553000D01*
X159993000Y-109652250D01*
X160151750Y-109811000D01*
X162742309Y-109811000D01*
X162891000Y-109749410D01*
X162891000Y-115647000D01*
X131241000Y-115647000D01*
X131241000Y-109749410D01*
X131389691Y-109811000D01*
X133980250Y-109811000D01*
X134139000Y-109652250D01*
X134139000Y-106553000D01*
X134393000Y-106553000D01*
X134393000Y-109652250D01*
X134551750Y-109811000D01*
X137142309Y-109811000D01*
X137375698Y-109714327D01*
X137554327Y-109535699D01*
X137651000Y-109302310D01*
X137651000Y-106711750D01*
X137492250Y-106553000D01*
X134393000Y-106553000D01*
X134139000Y-106553000D01*
X134119000Y-106553000D01*
X134119000Y-106299000D01*
X134139000Y-106299000D01*
X134139000Y-103199750D01*
X134393000Y-103199750D01*
X134393000Y-106299000D01*
X137492250Y-106299000D01*
X137651000Y-106140250D01*
X137651000Y-104426000D01*
X144418560Y-104426000D01*
X144418560Y-108426000D01*
X144462838Y-108661317D01*
X144601910Y-108877441D01*
X144814110Y-109022431D01*
X145066000Y-109073440D01*
X146131127Y-109073440D01*
X146130838Y-109405167D01*
X146272883Y-109748943D01*
X146535673Y-110012192D01*
X146879201Y-110154838D01*
X147251167Y-110155162D01*
X147594943Y-110013117D01*
X147858192Y-109750327D01*
X148000838Y-109406799D01*
X148001128Y-109073440D01*
X149066000Y-109073440D01*
X149301317Y-109029162D01*
X149517441Y-108890090D01*
X149662431Y-108677890D01*
X149713440Y-108426000D01*
X149713440Y-106711750D01*
X156481000Y-106711750D01*
X156481000Y-109302310D01*
X156577673Y-109535699D01*
X156756302Y-109714327D01*
X156989691Y-109811000D01*
X159580250Y-109811000D01*
X159739000Y-109652250D01*
X159739000Y-106553000D01*
X156639750Y-106553000D01*
X156481000Y-106711750D01*
X149713440Y-106711750D01*
X149713440Y-104426000D01*
X149669162Y-104190683D01*
X149530090Y-103974559D01*
X149317890Y-103829569D01*
X149066000Y-103778560D01*
X145066000Y-103778560D01*
X144830683Y-103822838D01*
X144614559Y-103961910D01*
X144469569Y-104174110D01*
X144418560Y-104426000D01*
X137651000Y-104426000D01*
X137651000Y-103549690D01*
X156481000Y-103549690D01*
X156481000Y-106140250D01*
X156639750Y-106299000D01*
X159739000Y-106299000D01*
X159739000Y-103199750D01*
X159580250Y-103041000D01*
X156989691Y-103041000D01*
X156756302Y-103137673D01*
X156577673Y-103316301D01*
X156481000Y-103549690D01*
X137651000Y-103549690D01*
X137554327Y-103316301D01*
X137375698Y-103137673D01*
X137142309Y-103041000D01*
X134551750Y-103041000D01*
X134393000Y-103199750D01*
X134139000Y-103199750D01*
X133980250Y-103041000D01*
X131389691Y-103041000D01*
X131241000Y-103102590D01*
X131241000Y-93649000D01*
X162891000Y-93649000D01*
X162891000Y-103102590D01*
X162891000Y-103102590D01*
G37*
X162891000Y-103102590D02*
X162742309Y-103041000D01*
X160151750Y-103041000D01*
X159993000Y-103199750D01*
X159993000Y-106299000D01*
X160013000Y-106299000D01*
X160013000Y-106553000D01*
X159993000Y-106553000D01*
X159993000Y-109652250D01*
X160151750Y-109811000D01*
X162742309Y-109811000D01*
X162891000Y-109749410D01*
X162891000Y-115647000D01*
X131241000Y-115647000D01*
X131241000Y-109749410D01*
X131389691Y-109811000D01*
X133980250Y-109811000D01*
X134139000Y-109652250D01*
X134139000Y-106553000D01*
X134393000Y-106553000D01*
X134393000Y-109652250D01*
X134551750Y-109811000D01*
X137142309Y-109811000D01*
X137375698Y-109714327D01*
X137554327Y-109535699D01*
X137651000Y-109302310D01*
X137651000Y-106711750D01*
X137492250Y-106553000D01*
X134393000Y-106553000D01*
X134139000Y-106553000D01*
X134119000Y-106553000D01*
X134119000Y-106299000D01*
X134139000Y-106299000D01*
X134139000Y-103199750D01*
X134393000Y-103199750D01*
X134393000Y-106299000D01*
X137492250Y-106299000D01*
X137651000Y-106140250D01*
X137651000Y-104426000D01*
X144418560Y-104426000D01*
X144418560Y-108426000D01*
X144462838Y-108661317D01*
X144601910Y-108877441D01*
X144814110Y-109022431D01*
X145066000Y-109073440D01*
X146131127Y-109073440D01*
X146130838Y-109405167D01*
X146272883Y-109748943D01*
X146535673Y-110012192D01*
X146879201Y-110154838D01*
X147251167Y-110155162D01*
X147594943Y-110013117D01*
X147858192Y-109750327D01*
X148000838Y-109406799D01*
X148001128Y-109073440D01*
X149066000Y-109073440D01*
X149301317Y-109029162D01*
X149517441Y-108890090D01*
X149662431Y-108677890D01*
X149713440Y-108426000D01*
X149713440Y-106711750D01*
X156481000Y-106711750D01*
X156481000Y-109302310D01*
X156577673Y-109535699D01*
X156756302Y-109714327D01*
X156989691Y-109811000D01*
X159580250Y-109811000D01*
X159739000Y-109652250D01*
X159739000Y-106553000D01*
X156639750Y-106553000D01*
X156481000Y-106711750D01*
X149713440Y-106711750D01*
X149713440Y-104426000D01*
X149669162Y-104190683D01*
X149530090Y-103974559D01*
X149317890Y-103829569D01*
X149066000Y-103778560D01*
X145066000Y-103778560D01*
X144830683Y-103822838D01*
X144614559Y-103961910D01*
X144469569Y-104174110D01*
X144418560Y-104426000D01*
X137651000Y-104426000D01*
X137651000Y-103549690D01*
X156481000Y-103549690D01*
X156481000Y-106140250D01*
X156639750Y-106299000D01*
X159739000Y-106299000D01*
X159739000Y-103199750D01*
X159580250Y-103041000D01*
X156989691Y-103041000D01*
X156756302Y-103137673D01*
X156577673Y-103316301D01*
X156481000Y-103549690D01*
X137651000Y-103549690D01*
X137554327Y-103316301D01*
X137375698Y-103137673D01*
X137142309Y-103041000D01*
X134551750Y-103041000D01*
X134393000Y-103199750D01*
X134139000Y-103199750D01*
X133980250Y-103041000D01*
X131389691Y-103041000D01*
X131241000Y-103102590D01*
X131241000Y-93649000D01*
X162891000Y-93649000D01*
X162891000Y-103102590D01*
M02*
