G04 #@! TF.FileFunction,Copper,L1,Top,Signal*
%FSLAX46Y46*%
G04 Gerber Fmt 4.6, Leading zero omitted, Abs format (unit mm)*
G04 Created by KiCad (PCBNEW 4.0.2-stable) date 2016 May 29, Sunday 21:59:10*
%MOMM*%
G01*
G04 APERTURE LIST*
%ADD10C,0.100000*%
%ADD11R,2.000000X1.600000*%
%ADD12R,1.198880X1.198880*%
%ADD13R,1.300000X1.500000*%
%ADD14R,1.500000X1.300000*%
%ADD15R,1.550000X0.600000*%
%ADD16C,0.685800*%
%ADD17C,0.254000*%
G04 APERTURE END LIST*
D10*
D11*
X115030000Y-98425000D03*
X111030000Y-98425000D03*
D12*
X104360980Y-98425000D03*
X106459020Y-98425000D03*
D13*
X113665000Y-83740000D03*
X113665000Y-86440000D03*
X113665000Y-91360000D03*
X113665000Y-94060000D03*
D14*
X95170000Y-98425000D03*
X97870000Y-98425000D03*
D15*
X102710000Y-90805000D03*
X102710000Y-92075000D03*
X102710000Y-93345000D03*
X102710000Y-94615000D03*
X108110000Y-94615000D03*
X108110000Y-93345000D03*
X108110000Y-92075000D03*
X108110000Y-90805000D03*
D16*
X105410000Y-96520000D03*
X108204000Y-88900000D03*
X100965000Y-94615000D03*
D17*
X110316000Y-94060000D02*
X113665000Y-94060000D01*
X109601000Y-93345000D02*
X110316000Y-94060000D01*
X108110000Y-93345000D02*
X109601000Y-93345000D01*
X102710000Y-92075000D02*
X104013000Y-92075000D01*
X105283000Y-93345000D02*
X108110000Y-93345000D01*
X104013000Y-92075000D02*
X105283000Y-93345000D01*
X113665000Y-97060000D02*
X115030000Y-98425000D01*
X113665000Y-94060000D02*
X113665000Y-97060000D01*
X104360980Y-98425000D02*
X97870000Y-98425000D01*
X108110000Y-90805000D02*
X108110000Y-88994000D01*
X108110000Y-88994000D02*
X108204000Y-88900000D01*
X102710000Y-94615000D02*
X100965000Y-94615000D01*
X113110000Y-83740000D02*
X113665000Y-83740000D01*
X112395000Y-84455000D02*
X113110000Y-83740000D01*
X112395000Y-90170000D02*
X112395000Y-84455000D01*
X111760000Y-90805000D02*
X112395000Y-90170000D01*
X108110000Y-90805000D02*
X111760000Y-90805000D01*
X113665000Y-86440000D02*
X113665000Y-91360000D01*
X113665000Y-91360000D02*
X112395000Y-92075000D01*
X112395000Y-92075000D02*
X108110000Y-92075000D01*
X102710000Y-93345000D02*
X97790000Y-93345000D01*
X95170000Y-95965000D02*
X95170000Y-98425000D01*
X97790000Y-93345000D02*
X95170000Y-95965000D01*
G36*
X121718000Y-104700000D02*
X88848000Y-104700000D01*
X88848000Y-97775000D01*
X93772560Y-97775000D01*
X93772560Y-99075000D01*
X93816838Y-99310317D01*
X93955910Y-99526441D01*
X94168110Y-99671431D01*
X94420000Y-99722440D01*
X95920000Y-99722440D01*
X96155317Y-99678162D01*
X96371441Y-99539090D01*
X96516431Y-99326890D01*
X96519081Y-99313803D01*
X96655910Y-99526441D01*
X96868110Y-99671431D01*
X97120000Y-99722440D01*
X98620000Y-99722440D01*
X98855317Y-99678162D01*
X99071441Y-99539090D01*
X99216431Y-99326890D01*
X99244759Y-99187000D01*
X103144688Y-99187000D01*
X103158378Y-99259757D01*
X103297450Y-99475881D01*
X103509650Y-99620871D01*
X103761540Y-99671880D01*
X104960420Y-99671880D01*
X105195737Y-99627602D01*
X105411861Y-99488530D01*
X105417456Y-99480341D01*
X105499882Y-99562767D01*
X105733271Y-99659440D01*
X106173270Y-99659440D01*
X106332020Y-99500690D01*
X106332020Y-98552000D01*
X106586020Y-98552000D01*
X106586020Y-99500690D01*
X106744770Y-99659440D01*
X107184769Y-99659440D01*
X107418158Y-99562767D01*
X107596787Y-99384139D01*
X107693460Y-99150750D01*
X107693460Y-98710750D01*
X109395000Y-98710750D01*
X109395000Y-99351310D01*
X109491673Y-99584699D01*
X109670302Y-99763327D01*
X109903691Y-99860000D01*
X110744250Y-99860000D01*
X110903000Y-99701250D01*
X110903000Y-98552000D01*
X111157000Y-98552000D01*
X111157000Y-99701250D01*
X111315750Y-99860000D01*
X112156309Y-99860000D01*
X112389698Y-99763327D01*
X112568327Y-99584699D01*
X112665000Y-99351310D01*
X112665000Y-98710750D01*
X112506250Y-98552000D01*
X111157000Y-98552000D01*
X110903000Y-98552000D01*
X109553750Y-98552000D01*
X109395000Y-98710750D01*
X107693460Y-98710750D01*
X107534710Y-98552000D01*
X106586020Y-98552000D01*
X106332020Y-98552000D01*
X106312020Y-98552000D01*
X106312020Y-98298000D01*
X106332020Y-98298000D01*
X106332020Y-97349310D01*
X106586020Y-97349310D01*
X106586020Y-98298000D01*
X107534710Y-98298000D01*
X107693460Y-98139250D01*
X107693460Y-97699250D01*
X107610386Y-97498690D01*
X109395000Y-97498690D01*
X109395000Y-98139250D01*
X109553750Y-98298000D01*
X110903000Y-98298000D01*
X110903000Y-97148750D01*
X111157000Y-97148750D01*
X111157000Y-98298000D01*
X112506250Y-98298000D01*
X112665000Y-98139250D01*
X112665000Y-97498690D01*
X112568327Y-97265301D01*
X112389698Y-97086673D01*
X112156309Y-96990000D01*
X111315750Y-96990000D01*
X111157000Y-97148750D01*
X110903000Y-97148750D01*
X110744250Y-96990000D01*
X109903691Y-96990000D01*
X109670302Y-97086673D01*
X109491673Y-97265301D01*
X109395000Y-97498690D01*
X107610386Y-97498690D01*
X107596787Y-97465861D01*
X107418158Y-97287233D01*
X107184769Y-97190560D01*
X106744770Y-97190560D01*
X106586020Y-97349310D01*
X106332020Y-97349310D01*
X106173270Y-97190560D01*
X105733271Y-97190560D01*
X105499882Y-97287233D01*
X105417669Y-97369445D01*
X105212310Y-97229129D01*
X104960420Y-97178120D01*
X103761540Y-97178120D01*
X103526223Y-97222398D01*
X103310099Y-97361470D01*
X103165109Y-97573670D01*
X103147019Y-97663000D01*
X99246366Y-97663000D01*
X99223162Y-97539683D01*
X99084090Y-97323559D01*
X98871890Y-97178569D01*
X98620000Y-97127560D01*
X97120000Y-97127560D01*
X96884683Y-97171838D01*
X96668559Y-97310910D01*
X96523569Y-97523110D01*
X96520919Y-97536197D01*
X96384090Y-97323559D01*
X96171890Y-97178569D01*
X95932000Y-97129990D01*
X95932000Y-96280630D01*
X98105631Y-94107000D01*
X100117085Y-94107000D01*
X99987270Y-94419630D01*
X99986931Y-94808663D01*
X100135493Y-95168212D01*
X100410341Y-95443540D01*
X100769630Y-95592730D01*
X101158663Y-95593069D01*
X101518212Y-95444507D01*
X101545417Y-95417349D01*
X101683110Y-95511431D01*
X101935000Y-95562440D01*
X103485000Y-95562440D01*
X103720317Y-95518162D01*
X103936441Y-95379090D01*
X104081431Y-95166890D01*
X104132440Y-94915000D01*
X104132440Y-94900750D01*
X106700000Y-94900750D01*
X106700000Y-95041310D01*
X106796673Y-95274699D01*
X106975302Y-95453327D01*
X107208691Y-95550000D01*
X107824250Y-95550000D01*
X107983000Y-95391250D01*
X107983000Y-94742000D01*
X108237000Y-94742000D01*
X108237000Y-95391250D01*
X108395750Y-95550000D01*
X109011309Y-95550000D01*
X109244698Y-95453327D01*
X109423327Y-95274699D01*
X109520000Y-95041310D01*
X109520000Y-94900750D01*
X109361250Y-94742000D01*
X108237000Y-94742000D01*
X107983000Y-94742000D01*
X106858750Y-94742000D01*
X106700000Y-94900750D01*
X104132440Y-94900750D01*
X104132440Y-94315000D01*
X104088162Y-94079683D01*
X104024322Y-93980472D01*
X104081431Y-93896890D01*
X104132440Y-93645000D01*
X104132440Y-93272071D01*
X104744184Y-93883815D01*
X104991395Y-94048996D01*
X105283000Y-94107000D01*
X106733837Y-94107000D01*
X106700000Y-94188690D01*
X106700000Y-94329250D01*
X106858750Y-94488000D01*
X107983000Y-94488000D01*
X107983000Y-94468000D01*
X108237000Y-94468000D01*
X108237000Y-94488000D01*
X109361250Y-94488000D01*
X109513810Y-94335440D01*
X109777185Y-94598816D01*
X109925377Y-94697834D01*
X110024395Y-94763996D01*
X110316000Y-94822000D01*
X112369818Y-94822000D01*
X112411838Y-95045317D01*
X112550910Y-95261441D01*
X112763110Y-95406431D01*
X112903000Y-95434759D01*
X112903000Y-97060000D01*
X112961004Y-97351605D01*
X113086674Y-97539683D01*
X113126185Y-97598815D01*
X113382560Y-97855190D01*
X113382560Y-99225000D01*
X113426838Y-99460317D01*
X113565910Y-99676441D01*
X113778110Y-99821431D01*
X114030000Y-99872440D01*
X116030000Y-99872440D01*
X116265317Y-99828162D01*
X116481441Y-99689090D01*
X116626431Y-99476890D01*
X116677440Y-99225000D01*
X116677440Y-97625000D01*
X116633162Y-97389683D01*
X116494090Y-97173559D01*
X116281890Y-97028569D01*
X116030000Y-96977560D01*
X114660190Y-96977560D01*
X114427000Y-96744370D01*
X114427000Y-95436366D01*
X114550317Y-95413162D01*
X114766441Y-95274090D01*
X114911431Y-95061890D01*
X114962440Y-94810000D01*
X114962440Y-93310000D01*
X114918162Y-93074683D01*
X114779090Y-92858559D01*
X114566890Y-92713569D01*
X114553803Y-92710919D01*
X114766441Y-92574090D01*
X114911431Y-92361890D01*
X114962440Y-92110000D01*
X114962440Y-90610000D01*
X114918162Y-90374683D01*
X114779090Y-90158559D01*
X114566890Y-90013569D01*
X114427000Y-89985241D01*
X114427000Y-87816366D01*
X114550317Y-87793162D01*
X114766441Y-87654090D01*
X114911431Y-87441890D01*
X114962440Y-87190000D01*
X114962440Y-85690000D01*
X114918162Y-85454683D01*
X114779090Y-85238559D01*
X114566890Y-85093569D01*
X114553803Y-85090919D01*
X114766441Y-84954090D01*
X114911431Y-84741890D01*
X114962440Y-84490000D01*
X114962440Y-82990000D01*
X114918162Y-82754683D01*
X114779090Y-82538559D01*
X114566890Y-82393569D01*
X114315000Y-82342560D01*
X113015000Y-82342560D01*
X112779683Y-82386838D01*
X112563559Y-82525910D01*
X112418569Y-82738110D01*
X112367560Y-82990000D01*
X112367560Y-83404809D01*
X111856185Y-83916185D01*
X111691004Y-84163395D01*
X111633000Y-84455000D01*
X111633000Y-89854369D01*
X111444370Y-90043000D01*
X109333636Y-90043000D01*
X109136890Y-89908569D01*
X108885000Y-89857560D01*
X108872000Y-89857560D01*
X108872000Y-89614919D01*
X109032540Y-89454659D01*
X109181730Y-89095370D01*
X109182069Y-88706337D01*
X109033507Y-88346788D01*
X108758659Y-88071460D01*
X108399370Y-87922270D01*
X108010337Y-87921931D01*
X107650788Y-88070493D01*
X107375460Y-88345341D01*
X107226270Y-88704630D01*
X107225931Y-89093663D01*
X107348000Y-89389094D01*
X107348000Y-89857560D01*
X107335000Y-89857560D01*
X107099683Y-89901838D01*
X106883559Y-90040910D01*
X106738569Y-90253110D01*
X106687560Y-90505000D01*
X106687560Y-91105000D01*
X106731838Y-91340317D01*
X106795678Y-91439528D01*
X106738569Y-91523110D01*
X106687560Y-91775000D01*
X106687560Y-92375000D01*
X106726698Y-92583000D01*
X105598631Y-92583000D01*
X104551815Y-91536185D01*
X104444829Y-91464699D01*
X104304605Y-91371004D01*
X104080594Y-91326445D01*
X104120000Y-91231310D01*
X104120000Y-91090750D01*
X103961250Y-90932000D01*
X102837000Y-90932000D01*
X102837000Y-90952000D01*
X102583000Y-90952000D01*
X102583000Y-90932000D01*
X101458750Y-90932000D01*
X101300000Y-91090750D01*
X101300000Y-91231310D01*
X101389806Y-91448122D01*
X101338569Y-91523110D01*
X101287560Y-91775000D01*
X101287560Y-92375000D01*
X101326698Y-92583000D01*
X97790000Y-92583000D01*
X97498396Y-92641003D01*
X97251185Y-92806184D01*
X94631185Y-95426185D01*
X94466004Y-95673395D01*
X94408000Y-95965000D01*
X94408000Y-97129818D01*
X94184683Y-97171838D01*
X93968559Y-97310910D01*
X93823569Y-97523110D01*
X93772560Y-97775000D01*
X88848000Y-97775000D01*
X88848000Y-90378690D01*
X101300000Y-90378690D01*
X101300000Y-90519250D01*
X101458750Y-90678000D01*
X102583000Y-90678000D01*
X102583000Y-90028750D01*
X102837000Y-90028750D01*
X102837000Y-90678000D01*
X103961250Y-90678000D01*
X104120000Y-90519250D01*
X104120000Y-90378690D01*
X104023327Y-90145301D01*
X103844698Y-89966673D01*
X103611309Y-89870000D01*
X102995750Y-89870000D01*
X102837000Y-90028750D01*
X102583000Y-90028750D01*
X102424250Y-89870000D01*
X101808691Y-89870000D01*
X101575302Y-89966673D01*
X101396673Y-90145301D01*
X101300000Y-90378690D01*
X88848000Y-90378690D01*
X88848000Y-80720000D01*
X121718000Y-80720000D01*
X121718000Y-104700000D01*
X121718000Y-104700000D01*
G37*
X121718000Y-104700000D02*
X88848000Y-104700000D01*
X88848000Y-97775000D01*
X93772560Y-97775000D01*
X93772560Y-99075000D01*
X93816838Y-99310317D01*
X93955910Y-99526441D01*
X94168110Y-99671431D01*
X94420000Y-99722440D01*
X95920000Y-99722440D01*
X96155317Y-99678162D01*
X96371441Y-99539090D01*
X96516431Y-99326890D01*
X96519081Y-99313803D01*
X96655910Y-99526441D01*
X96868110Y-99671431D01*
X97120000Y-99722440D01*
X98620000Y-99722440D01*
X98855317Y-99678162D01*
X99071441Y-99539090D01*
X99216431Y-99326890D01*
X99244759Y-99187000D01*
X103144688Y-99187000D01*
X103158378Y-99259757D01*
X103297450Y-99475881D01*
X103509650Y-99620871D01*
X103761540Y-99671880D01*
X104960420Y-99671880D01*
X105195737Y-99627602D01*
X105411861Y-99488530D01*
X105417456Y-99480341D01*
X105499882Y-99562767D01*
X105733271Y-99659440D01*
X106173270Y-99659440D01*
X106332020Y-99500690D01*
X106332020Y-98552000D01*
X106586020Y-98552000D01*
X106586020Y-99500690D01*
X106744770Y-99659440D01*
X107184769Y-99659440D01*
X107418158Y-99562767D01*
X107596787Y-99384139D01*
X107693460Y-99150750D01*
X107693460Y-98710750D01*
X109395000Y-98710750D01*
X109395000Y-99351310D01*
X109491673Y-99584699D01*
X109670302Y-99763327D01*
X109903691Y-99860000D01*
X110744250Y-99860000D01*
X110903000Y-99701250D01*
X110903000Y-98552000D01*
X111157000Y-98552000D01*
X111157000Y-99701250D01*
X111315750Y-99860000D01*
X112156309Y-99860000D01*
X112389698Y-99763327D01*
X112568327Y-99584699D01*
X112665000Y-99351310D01*
X112665000Y-98710750D01*
X112506250Y-98552000D01*
X111157000Y-98552000D01*
X110903000Y-98552000D01*
X109553750Y-98552000D01*
X109395000Y-98710750D01*
X107693460Y-98710750D01*
X107534710Y-98552000D01*
X106586020Y-98552000D01*
X106332020Y-98552000D01*
X106312020Y-98552000D01*
X106312020Y-98298000D01*
X106332020Y-98298000D01*
X106332020Y-97349310D01*
X106586020Y-97349310D01*
X106586020Y-98298000D01*
X107534710Y-98298000D01*
X107693460Y-98139250D01*
X107693460Y-97699250D01*
X107610386Y-97498690D01*
X109395000Y-97498690D01*
X109395000Y-98139250D01*
X109553750Y-98298000D01*
X110903000Y-98298000D01*
X110903000Y-97148750D01*
X111157000Y-97148750D01*
X111157000Y-98298000D01*
X112506250Y-98298000D01*
X112665000Y-98139250D01*
X112665000Y-97498690D01*
X112568327Y-97265301D01*
X112389698Y-97086673D01*
X112156309Y-96990000D01*
X111315750Y-96990000D01*
X111157000Y-97148750D01*
X110903000Y-97148750D01*
X110744250Y-96990000D01*
X109903691Y-96990000D01*
X109670302Y-97086673D01*
X109491673Y-97265301D01*
X109395000Y-97498690D01*
X107610386Y-97498690D01*
X107596787Y-97465861D01*
X107418158Y-97287233D01*
X107184769Y-97190560D01*
X106744770Y-97190560D01*
X106586020Y-97349310D01*
X106332020Y-97349310D01*
X106173270Y-97190560D01*
X105733271Y-97190560D01*
X105499882Y-97287233D01*
X105417669Y-97369445D01*
X105212310Y-97229129D01*
X104960420Y-97178120D01*
X103761540Y-97178120D01*
X103526223Y-97222398D01*
X103310099Y-97361470D01*
X103165109Y-97573670D01*
X103147019Y-97663000D01*
X99246366Y-97663000D01*
X99223162Y-97539683D01*
X99084090Y-97323559D01*
X98871890Y-97178569D01*
X98620000Y-97127560D01*
X97120000Y-97127560D01*
X96884683Y-97171838D01*
X96668559Y-97310910D01*
X96523569Y-97523110D01*
X96520919Y-97536197D01*
X96384090Y-97323559D01*
X96171890Y-97178569D01*
X95932000Y-97129990D01*
X95932000Y-96280630D01*
X98105631Y-94107000D01*
X100117085Y-94107000D01*
X99987270Y-94419630D01*
X99986931Y-94808663D01*
X100135493Y-95168212D01*
X100410341Y-95443540D01*
X100769630Y-95592730D01*
X101158663Y-95593069D01*
X101518212Y-95444507D01*
X101545417Y-95417349D01*
X101683110Y-95511431D01*
X101935000Y-95562440D01*
X103485000Y-95562440D01*
X103720317Y-95518162D01*
X103936441Y-95379090D01*
X104081431Y-95166890D01*
X104132440Y-94915000D01*
X104132440Y-94900750D01*
X106700000Y-94900750D01*
X106700000Y-95041310D01*
X106796673Y-95274699D01*
X106975302Y-95453327D01*
X107208691Y-95550000D01*
X107824250Y-95550000D01*
X107983000Y-95391250D01*
X107983000Y-94742000D01*
X108237000Y-94742000D01*
X108237000Y-95391250D01*
X108395750Y-95550000D01*
X109011309Y-95550000D01*
X109244698Y-95453327D01*
X109423327Y-95274699D01*
X109520000Y-95041310D01*
X109520000Y-94900750D01*
X109361250Y-94742000D01*
X108237000Y-94742000D01*
X107983000Y-94742000D01*
X106858750Y-94742000D01*
X106700000Y-94900750D01*
X104132440Y-94900750D01*
X104132440Y-94315000D01*
X104088162Y-94079683D01*
X104024322Y-93980472D01*
X104081431Y-93896890D01*
X104132440Y-93645000D01*
X104132440Y-93272071D01*
X104744184Y-93883815D01*
X104991395Y-94048996D01*
X105283000Y-94107000D01*
X106733837Y-94107000D01*
X106700000Y-94188690D01*
X106700000Y-94329250D01*
X106858750Y-94488000D01*
X107983000Y-94488000D01*
X107983000Y-94468000D01*
X108237000Y-94468000D01*
X108237000Y-94488000D01*
X109361250Y-94488000D01*
X109513810Y-94335440D01*
X109777185Y-94598816D01*
X109925377Y-94697834D01*
X110024395Y-94763996D01*
X110316000Y-94822000D01*
X112369818Y-94822000D01*
X112411838Y-95045317D01*
X112550910Y-95261441D01*
X112763110Y-95406431D01*
X112903000Y-95434759D01*
X112903000Y-97060000D01*
X112961004Y-97351605D01*
X113086674Y-97539683D01*
X113126185Y-97598815D01*
X113382560Y-97855190D01*
X113382560Y-99225000D01*
X113426838Y-99460317D01*
X113565910Y-99676441D01*
X113778110Y-99821431D01*
X114030000Y-99872440D01*
X116030000Y-99872440D01*
X116265317Y-99828162D01*
X116481441Y-99689090D01*
X116626431Y-99476890D01*
X116677440Y-99225000D01*
X116677440Y-97625000D01*
X116633162Y-97389683D01*
X116494090Y-97173559D01*
X116281890Y-97028569D01*
X116030000Y-96977560D01*
X114660190Y-96977560D01*
X114427000Y-96744370D01*
X114427000Y-95436366D01*
X114550317Y-95413162D01*
X114766441Y-95274090D01*
X114911431Y-95061890D01*
X114962440Y-94810000D01*
X114962440Y-93310000D01*
X114918162Y-93074683D01*
X114779090Y-92858559D01*
X114566890Y-92713569D01*
X114553803Y-92710919D01*
X114766441Y-92574090D01*
X114911431Y-92361890D01*
X114962440Y-92110000D01*
X114962440Y-90610000D01*
X114918162Y-90374683D01*
X114779090Y-90158559D01*
X114566890Y-90013569D01*
X114427000Y-89985241D01*
X114427000Y-87816366D01*
X114550317Y-87793162D01*
X114766441Y-87654090D01*
X114911431Y-87441890D01*
X114962440Y-87190000D01*
X114962440Y-85690000D01*
X114918162Y-85454683D01*
X114779090Y-85238559D01*
X114566890Y-85093569D01*
X114553803Y-85090919D01*
X114766441Y-84954090D01*
X114911431Y-84741890D01*
X114962440Y-84490000D01*
X114962440Y-82990000D01*
X114918162Y-82754683D01*
X114779090Y-82538559D01*
X114566890Y-82393569D01*
X114315000Y-82342560D01*
X113015000Y-82342560D01*
X112779683Y-82386838D01*
X112563559Y-82525910D01*
X112418569Y-82738110D01*
X112367560Y-82990000D01*
X112367560Y-83404809D01*
X111856185Y-83916185D01*
X111691004Y-84163395D01*
X111633000Y-84455000D01*
X111633000Y-89854369D01*
X111444370Y-90043000D01*
X109333636Y-90043000D01*
X109136890Y-89908569D01*
X108885000Y-89857560D01*
X108872000Y-89857560D01*
X108872000Y-89614919D01*
X109032540Y-89454659D01*
X109181730Y-89095370D01*
X109182069Y-88706337D01*
X109033507Y-88346788D01*
X108758659Y-88071460D01*
X108399370Y-87922270D01*
X108010337Y-87921931D01*
X107650788Y-88070493D01*
X107375460Y-88345341D01*
X107226270Y-88704630D01*
X107225931Y-89093663D01*
X107348000Y-89389094D01*
X107348000Y-89857560D01*
X107335000Y-89857560D01*
X107099683Y-89901838D01*
X106883559Y-90040910D01*
X106738569Y-90253110D01*
X106687560Y-90505000D01*
X106687560Y-91105000D01*
X106731838Y-91340317D01*
X106795678Y-91439528D01*
X106738569Y-91523110D01*
X106687560Y-91775000D01*
X106687560Y-92375000D01*
X106726698Y-92583000D01*
X105598631Y-92583000D01*
X104551815Y-91536185D01*
X104444829Y-91464699D01*
X104304605Y-91371004D01*
X104080594Y-91326445D01*
X104120000Y-91231310D01*
X104120000Y-91090750D01*
X103961250Y-90932000D01*
X102837000Y-90932000D01*
X102837000Y-90952000D01*
X102583000Y-90952000D01*
X102583000Y-90932000D01*
X101458750Y-90932000D01*
X101300000Y-91090750D01*
X101300000Y-91231310D01*
X101389806Y-91448122D01*
X101338569Y-91523110D01*
X101287560Y-91775000D01*
X101287560Y-92375000D01*
X101326698Y-92583000D01*
X97790000Y-92583000D01*
X97498396Y-92641003D01*
X97251185Y-92806184D01*
X94631185Y-95426185D01*
X94466004Y-95673395D01*
X94408000Y-95965000D01*
X94408000Y-97129818D01*
X94184683Y-97171838D01*
X93968559Y-97310910D01*
X93823569Y-97523110D01*
X93772560Y-97775000D01*
X88848000Y-97775000D01*
X88848000Y-90378690D01*
X101300000Y-90378690D01*
X101300000Y-90519250D01*
X101458750Y-90678000D01*
X102583000Y-90678000D01*
X102583000Y-90028750D01*
X102837000Y-90028750D01*
X102837000Y-90678000D01*
X103961250Y-90678000D01*
X104120000Y-90519250D01*
X104120000Y-90378690D01*
X104023327Y-90145301D01*
X103844698Y-89966673D01*
X103611309Y-89870000D01*
X102995750Y-89870000D01*
X102837000Y-90028750D01*
X102583000Y-90028750D01*
X102424250Y-89870000D01*
X101808691Y-89870000D01*
X101575302Y-89966673D01*
X101396673Y-90145301D01*
X101300000Y-90378690D01*
X88848000Y-90378690D01*
X88848000Y-80720000D01*
X121718000Y-80720000D01*
X121718000Y-104700000D01*
M02*
